<svg width="20" height="20" viewBox="0 0 20 20" fill="none" xmlns="http://www.w3.org/2000/svg">
<path d="M16.3663 2H3.63359C3.20176 2 2.78762 2.17154 2.48227 2.4769C2.17692 2.78225 2.00537 3.19639 2.00537 3.62822V16.3718C2.00537 16.8036 2.17692 17.2178 2.48227 17.5231C2.78762 17.8285 3.20176 18 3.63359 18H16.3663C16.7981 18 17.2123 17.8285 17.5176 17.5231C17.823 17.2178 17.9945 16.8036 17.9945 16.3718V3.63908C17.9959 3.42434 17.9549 3.21145 17.8737 3.01265C17.7925 2.81385 17.6728 2.63307 17.5215 2.48073C17.3701 2.32838 17.1902 2.20747 16.9919 2.12497C16.7936 2.04247 16.581 2 16.3663 2ZM7.061 17.1967H3.63359C3.41768 17.1967 3.21061 17.111 3.05793 16.9583C2.90525 16.8056 2.81948 16.5985 2.81948 16.3826V14.9715H7.061V17.1967ZM7.061 14.1574H2.80863V11.9322H7.061V14.1574ZM7.061 11.118H2.80863V8.89281H7.061V11.118ZM7.061 8.0787H2.80863V5.85346H7.061V8.0787ZM12.1248 17.1967H7.87511V14.9715H12.1248V17.1967ZM12.1248 14.1574H7.87511V11.9322H12.1248V14.1574ZM12.1248 11.118H7.87511V8.89281H12.1248V11.118ZM12.1248 8.0787H7.87511V5.85346H12.1248V8.0787ZM17.1913 16.3718C17.1913 16.5877 17.1055 16.7948 16.9528 16.9474C16.8001 17.1001 16.5931 17.1859 16.3771 17.1859H12.9389V14.9715H17.1913V16.3718ZM17.1913 14.1574H12.9389V11.9322H17.1913V14.1574ZM17.1913 11.118H12.9389V8.89281H17.1913V11.118ZM17.1913 8.0787H12.9389V5.85346H17.1913V8.0787Z" fill="#212529"/>
</svg>
